# xmcd
#
# Track frame offsets:
# 150
# 10522
# 22379
# 40916
# 52713
# 66305
# 78392
# 93399
# 115216
# 123253
# 134515
# 148997
# 158479
# 173206
# 188153
# 199245
# 213102
# 225024
# 235431
# 252738
#
# Disc length: 3512 seconds
#
#
# Revision: 0
# Processed by: cddbd v1.5.1PL2 Copyright (c) Steve Scherf et al.
# Submitted via: FreeRIP 2.931 
#
DISCID=130db614
DTITLE=Various Artist - Songs of New Zealand
DYEAR=2002
DGENRE=National Folk
TTITLE0=McKenzie and his dog
TTITLE1=Pokarekare Ana
TTITLE2=Rugby, Racing and Beer medly
TTITLE3=Maple on the hill
TTITLE4=The Bluff Oyster Song
TTITLE5=Cardigan Bay
TTITLE6=One by one
TTITLE7=Roaming 'Round New Zealand
TTITLE8=God defend New Zealand
TTITLE9=I'm Still singing Country Music
TTITLE10=Christchurch City
TTITLE11=When my Wahine does the poi
TTITLE12=The Fairlie Flyer
TTITLE13=One more time
TTITLE14=Kiwi Hobo
TTITLE15=The Kingston Flyer
TTITLE16=New Zealand needs a country hal of fame
TTITLE17=Comalco
TTITLE18=Memories of flight TE-901
TTITLE19=The Wedding Song
EXTD=
EXTT0=
EXTT1=
EXTT2=
EXTT3=
EXTT4=
EXTT5=
EXTT6=
EXTT7=
EXTT8=
EXTT9=
EXTT10=
EXTT11=
EXTT12=
EXTT13=
EXTT14=
EXTT15=
EXTT16=
EXTT17=
EXTT18=
EXTT19=
PLAYORDER=
